# xmcd
#
# Track frame offsets: 
#        150
#        12974
#        17823
#        38092
#        58926
#        93289
#        116458
#        150212
#        164976
#        195928
#
# Disc length: 3051 seconds
#
# Revision: 4
# Processed by: cddbd v1.5.2PL0 Copyright (c) Steve Scherf et al.
# Submitted via: ExactAudioCopy v0.95a4
#
DISCID=730be90a
DTITLE=Joe Bonamassa - Muddy Wolf At Red Rocks [CD1]
DYEAR=2015
DGENRE=Blues
TTITLE0="We Went Down To The Mississippi Delta..."
TTITLE1=Muddy Waters Talking
TTITLE2=Tiger In Your Tank
TTITLE3=I Can't Be Satisfied
TTITLE4=You Shook Me
TTITLE5=Stuff You Gotta Watch
TTITLE6=Double Trouble
TTITLE7=Real Love
TTITLE8=My Home Is On The Delta
TTITLE9=All Aboard
EXTD=
EXTT0=
EXTT1=
EXTT2=
EXTT3=
EXTT4=
EXTT5=
EXTT6=
EXTT7=
EXTT8=
EXTT9=
PLAYORDER=
